# AST/ASF file generated using VICON BodyLanguage
# -----------------------------------------------
:version 1.10
:name VICON
:units
  mass 1.0
  length 0.45
  angle deg
:documentation
   .ast/.asf automatically generated from VICON data using
   VICON BodyBuilder and BodyLanguage model FoxedUp or BRILLIANT.MOD
:root
   order TX TY TZ RX RY RZ
   axis XYZ
   position 0 0 0  
   orientation 0 0 0 
:bonedata
  begin
     id 1 
     name lhipjoint
     direction 0.716712 -0.619771 0.3197 
     length 2.67249 
     axis 0 0 0  XYZ
  end
  begin
     id 2 
     name lfemur
     direction 0.34202 -0.939693 0  
     length 7.04375  
     axis 0 0 20  XYZ
    dof rx ry rz
    limits (-160.0 20.0)
           (-70.0 70.0)
           (-60.0 70.0)
  end
  begin
     id 3 
     name ltibia
     direction 0.34202 -0.939693 0   
     length 8.12233   
     axis 0 0 20   XYZ
    dof rx
    limits (-10.0 170.0)
  end
  begin
     id 4 
     name lfoot
     direction 0.0986665 -0.271084 0.957485   
     length 1.97802   
     axis -90 7.62852e-016 20   XYZ
    dof rx rz
    limits (-45.0 90.0)
           (-70.0 20.0)
  end
  begin
     id 5 
     name ltoes
     direction 1.53569e-011 -4.21962e-011 1   
     length 0.991074   
     axis -90 7.62852e-016 20   XYZ
    dof rx
    limits (-90.0 20.0)
  end
  begin
     id 6 
     name rhipjoint
     direction -0.684484 -0.647907 0.334213   
     length 2.55643  
     axis 0 0 0  XYZ 
  end
  begin
     id 7 
     name rfemur
     direction -0.34202 -0.939693 0   
     length 7.00452   
     axis 0 0 -20   XYZ
    dof rx ry rz
    limits (-160.0 20.0)
           (-70.0 70.0)
           (-70.0 60.0)
  end
  begin
     id 8 
     name rtibia
     direction -0.34202 -0.939693 0   
     length 7.98545   
     axis 0 0 -20   XYZ
    dof rx
    limits (-10.0 170.0)
 end
 begin
     id 9 
     name rfoot
     direction -0.0877828 -0.241181 0.966502   
     length 2.17223  
     axis -90 -7.62852e-016 -20   XYZ
    dof rx rz
    limits (-45.0 90.0)
           (-20.0 70.0)
  end
  begin
     id 10 
     name rtoes
     direction -1.53586e-011 -4.22014e-011 1   
     length 1.0886   
     axis -90 -7.62852e-016 -20   XYZ
    dof rx
    limits (-90.0 20.0)
  end
  begin
     id 11 
     name lowerback
     direction -0.0470064 0.989573 -0.136149   
     length 2.05976   
     axis 0 0 0   XYZ
    dof rx ry rz
    limits (-20.0 45.0)
           (-30.0 30.0)
           (-30.0 30.0)
  end
  begin
     id 12 
     name upperback
     direction -0.00532895 0.998093 0.0615045   
     length 2.02286   
     axis 0 0 0   XYZ
    dof rx ry rz
    limits (-20.0 45.0)
           (-30.0 30.0)
           (-30.0 30.0)
  end
  begin
     id 13 
     name thorax
     direction 0.0171558 0.991502 0.128954   
     length 2.09196   
     axis 0 0 0   XYZ
    dof rx ry rz
    limits (-20.0 45.0)
           (-30.0 30.0)
           (-30.0 30.0)
  end
  begin
     id 14 
     name lowerneck
     direction 0.0221176 0.995362 0.0936194   
     length 1.70234   
     axis 0 0 0   XYZ
    dof rx ry rz
    limits (-20.0 45.0)
           (-30.0 30.0)
           (-30.0 30.0)
  end
  begin
     id 15 
     name upperneck
     direction -0.0237973 0.998511 -0.0490877   
     length 1.66068   
     axis 0 0 0   XYZ
    dof rx ry rz
    limits (-20.0 45.0)
           (-30.0 30.0)
           (-30.0 30.0)
  end
  begin
     id 16
     name head
     direction -0.00980141 0.999531 -0.0289958  
     length 1.82618  
     axis 0 0 0   XYZ
    dof rx ry rz
    limits (-20.0 45.0)
           (-30.0 30.0)
           (-30.0 30.0)
  end
  begin
     id 17 
     name lclavicle
     direction 0.894784 0.445864 -0.0238113  
     length 3.37997  
     axis 0 0 0   XYZ
    dof ry rz
    limits (-20.0 10.0)
           (0.0 20.0)
  end
  begin
     id 18 
     name lhumerus
     direction 1 -4.48975e-011 6.49229e-028   
     length 5.79016   
     axis 180 -30 -90   XYZ
    dof rx ry rz
    limits (-60.0 90.0)
           (-90.0 90.0)
           (-90.0 90.0)
  end
  begin
     id 19
     name lradius
     direction 1 -4.48959e-011 2.80427e-027   
     length 3.48314   
     axis 180 -30 -90   XYZ
    dof rx
    limits (-10.0 170.0)
  end
  begin
     id 20
     name lwrist
     direction 1 -4.48938e-011 5.60449e-029   
     length 1.74157   
     axis 8.48505e-016 90 90   XYZ
    dof ry
    limits (-180.0 0.0)
 end
  begin
     id 21 
     name lhand
     direction 1 -4.49048e-011 1.1209e-028   
     length 0.587065   
     axis -7.15228e-017 90 90   XYZ
    dof rx rz
    limits (-90.0 90.0)
           (-45.0 45.0)
  end
  begin
     id 22 
     name lfingers
     direction 1 -4.49036e-011 2.24179e-028   
     length 0.473307   
     axis -1.43046e-016 90 90   XYZ
    dof rx
    limits (0.0 90.0)
  end
  begin
     id 23
     name lthumb
     direction 0.707107 -6.34878e-011 0.707107   
     length 0.679577   
     axis -90 45 2.85299e-015   XYZ
    dof rx rz
    limits (-45.0 45.0)
           (-45.0 45.0)
  end
  begin
     id 24 
     name rclavicle
     direction -0.952963 0.303049 0.00480459   
     length 3.50503  
     axis 0 0 0   XYZ 
    dof ry rz
    limits (-10.0 20.0)
           (-20.0 0.0)
  end
  begin
     id 25 
     name rhumerus
     direction -1 -4.48973e-011 -1.5431e-027  
     length 5.69822   
     axis 180 30 90   XYZ
    dof rx ry rz
    limits (-90.0 60.0)
           (-90.0 90.0)
           (-90.0 90.0)
  end
  begin
     id 26 
     name rradius
     direction -1 -4.4896e-011 2.11972e-027   
     length 3.58077   
     axis 180 30 90   XYZ
    dof rx
    limits (-10.0 170.0)
  end
  begin
     id 27 
     name rwrist
     direction -1 -4.48943e-011 5.60449e-029   
     length 1.79039   
     axis 8.48505e-016 -90 -90   XYZ
    dof ry
    limits (-180.0 0.0)
  end
  begin
     id 28
     name rhand
     direction -1 -4.49007e-011 1.1209e-028   
     length 0.620156   
     axis -7.15228e-017 -90 -90   XYZ
    dof rx rz
    limits (-90.0 90.0)
           (-45.0 45.0)
  end
  begin
     id 29
     name rfingers
     direction -1 -4.49025e-011 2.24179e-028   
     length 0.499985   
     axis -1.43046e-016 -90 -90   XYZ
    dof rx
    limits (0.0 90.0)
  end
  begin
     id 30
     name rthumb
     direction -0.707107 -6.3481e-011 0.707107   
     length 0.717882   
     axis -90 -45 -2.85299e-015   XYZ
    dof rx rz
    limits (-45.0 45.0)
           (-45.0 45.0)
  end
:hierarchy
  begin
    root lhipjoint rhipjoint lowerback
    lhipjoint lfemur
    lfemur ltibia
    ltibia lfoot
    lfoot ltoes
    rhipjoint rfemur
    rfemur rtibia
    rtibia rfoot
    rfoot rtoes
    lowerback upperback
    upperback thorax
    thorax lowerneck lclavicle rclavicle
    lowerneck upperneck
    upperneck head
    lclavicle lhumerus
    lhumerus lradius
    lradius lwrist
    lwrist lhand lthumb
    lhand lfingers
    rclavicle rhumerus
    rhumerus rradius
    rradius rwrist
    rwrist rhand rthumb
    rhand rfingers
  end

#!OML:ASF H:\Terrain\Patient Classification 1\PaulMetrics\March17Take4\PaulMetrics.ASF
:FULLY-SPECIFIED
:DEGREES
990
root -10.6995 16.9479 -19.5426 -173.18 -178.855 -181.993
lowerback 1.94513 1.33999 -2.78346
upperback -3.01073 1.66286 -0.445834
thorax -4.26227 0.90886 1.0044
lowerneck -3.55988 8.78029 7.28462
upperneck 12.2697 12.7063 -10.6436
head 5.42138 5.98716 -3.66385
rclavicle 7.70291e-016 1.59028e-015
rhumerus -43.9541 9.52917 -82.5688
rradius 42.634
rwrist -9.56744
rhand -16.8294 -33.742
rfingers 7.12502
rthumb 9.39997 -63.5124
lclavicle 7.70291e-016 1.59028e-015
lhumerus -48.5766 -12.4505 85.6756
lradius 39.2057
lwrist 19.1273
lhand -9.93128 -17.6595
lfingers 7.12502
lthumb 16.0498 11.6957
rfemur -5.47986 4.4414 27.9898
rtibia 20.6038
rfoot -19.5204 -18.573
rtoes -3.79828
lfemur -38.4789 4.71252 -26.3833
ltibia 38.803
lfoot -15.7379 8.31576
ltoes -0.371603
991
root -10.7135 16.9524 -19.4175 -173.015 -179.002 -181.901
lowerback 1.69081 1.38233 -2.83407
upperback -2.94591 1.72355 -0.556567
thorax -4.05111 0.935996 0.922721
lowerneck -3.77827 8.87772 7.33679
upperneck 12.2331 12.82 -10.6321
head 5.46103 6.03857 -3.6481
rclavicle -4.00054e-015 3.18055e-015
rhumerus -43.7567 9.70471 -82.5974
rradius 43.0727
rwrist -9.90085
rhand -17.5358 -34.2755
rfingers 7.12502
rthumb 8.71834 -64.0755
lclavicle -4.00054e-015 3.18055e-015
lhumerus -48.3276 -12.4129 85.4971
lradius 38.9803
lwrist 19.1771
lhand -9.7755 -17.68
lfingers 7.12502
lthumb 16.1998 11.6631
rfemur -4.55183 4.33207 27.9235
rtibia 19.3986
rfoot -19.6842 -18.3402
rtoes -1.71783
lfemur -38.5874 4.81229 -26.7471
ltibia 36.7281
lfoot -16.131 8.97339
ltoes -0.140544
992
root -10.7285 16.9536 -19.2914 -172.896 -179.349 -181.949
lowerback 1.44763 1.33008 -2.76244
upperback -2.8536 1.66572 -0.584311
thorax -3.81194 0.901368 0.865065
lowerneck -3.99398 9.00749 7.20972
upperneck 12.2167 12.9848 -10.5514
head 5.49503 6.11029 -3.57847
rclavicle -5.56597e-015 -1.90833e-014
rhumerus -43.3268 9.76402 -82.5544
rradius 43.3497
rwrist -10.0742
rhand -18.1088 -34.8515
rfingers 7.12502
rthumb 8.16535 -64.6737
lclavicle -5.56597e-015 -1.90833e-014
lhumerus -48.0633 -12.1569 85.3057
lradius 38.7493
lwrist 18.9059
lhand -9.9012 -17.1874
lfingers 7.12502
lthumb 16.0788 12.1655
rfemur -3.50953 4.14775 28.0712
rtibia 18.1055
rfoot -19.6063 -18.4054
rtoes -1.36573
lfemur -38.6797 4.77428 -26.871
ltibia 34.7364
lfoot -16.6036 9.40435
ltoes 0.117219
993
root -10.7423 16.9599 -19.1641 -172.799 -179.641 -182.099
lowerback 1.26128 1.261 -2.67459
upperback -2.87955 1.58447 -0.518303
thorax -3.72951 0.858927 0.892053
lowerneck -3.80304 9.0882 7.11253
upperneck 12.19 13.122 -10.6313
head 5.46605 6.17565 -3.58534
rclavicle -7.1314e-015 -3.18055e-015
rhumerus -43.1182 9.98951 -82.5102
rradius 43.5026
rwrist -10.3536
rhand -18.5464 -34.6545
rfingers 7.12502
rthumb 7.74294 -64.4928
lclavicle -7.1314e-015 -3.18055e-015
lhumerus -48.1108 -11.7081 85.2064
lradius 38.6671
lwrist 18.6616
lhand -10.2363 -16.967
lfingers 7.12502
lthumb 15.7561 12.4117
rfemur -2.39551 4.07236 28.3466
rtibia 16.7032
rfoot -19.2648 -18.7607
rtoes -2.51676
lfemur -38.8019 4.6649 -26.8606
ltibia 32.8577
lfoot -17.0615 10.1356
ltoes -0.565132
994
root -10.7503 16.9671 -19.0376 -172.624 -179.773 -182.257
lowerback 0.975993 1.33732 -2.51899
upperback -2.90953 1.69919 -0.543674
thorax -3.59749 0.910385 0.780414
lowerneck -3.62283 9.08987 7.16134
upperneck 12.1078 13.1238 -10.6506
head 5.41451 6.18613 -3.60838
rclavicle -4.99446e-015 4.77083e-015
rhumerus -42.9933 9.91998 -82.3847
rradius 43.6594
rwrist -10.4071
rhand -18.4785 -34.0541
rfingers 7.12502
rthumb 7.80856 -63.8899
lclavicle -4.99446e-015 4.77083e-015
lhumerus -48.0435 -11.6829 85.1597
lradius 38.5346
lwrist 18.8262
lhand -10.0303 -16.9676
lfingers 7.12502
lthumb 15.9544 12.3953
rfemur -1.32762 3.96833 28.5325
rtibia 15.1712
rfoot -18.8345 -18.8216
rtoes -3.12503
lfemur -39.0058 4.2211 -26.7145
ltibia 31.1412
lfoot -17.553 11.4977
ltoes -3.58542
995
root -10.7595 16.9592 -18.9148 -172.544 -179.94 -182.449
lowerback 0.901622 1.47401 -2.31217
upperback -2.90705 1.88808 -0.605756
thorax -3.54972 0.997392 0.59509
lowerneck -3.49573 8.98378 7.20261
upperneck 11.8573 12.957 -10.6559
head 5.30282 6.11718 -3.64049
rclavicle 8.64713e-015 -1.59028e-015
rhumerus -42.8293 9.71227 -82.2578
rradius 43.8033
rwrist -10.6122
rhand -18.4946 -33.5554
rfingers 7.12502
rthumb 7.79297 -63.3917
lclavicle 8.64713e-015 -1.59028e-015
lhumerus -47.7799 -11.8402 85.081
lradius 38.1945
lwrist 18.8339
lhand -9.78353 -17.5089
lfingers 7.12502
lthumb 16.1921 11.8349
rfemur -0.163585 3.82387 28.7809
rtibia 13.6332
rfoot -18.2011 -18.8033
rtoes -2.61245
lfemur -39.085 3.34905 -26.2348
ltibia 29.5743
lfoot -18.2042 12.7783
ltoes -4.1097
996
root -10.7712 16.9516 -18.7896 -172.458 -180.156 -182.484
lowerback 0.92199 1.51117 -2.37961
upperback -3.04453 1.93246 -0.624795
thorax -3.70687 1.02353 0.607969
lowerneck -3.43627 8.92004 7.27542
upperneck 12.1757 12.8973 -10.6354
head 5.38836 6.08727 -3.64973
rclavicle 3.08862e-014 3.97569e-015
rhumerus -42.8437 9.83326 -82.214
rradius 43.8616
rwrist -10.7275
rhand -18.6064 -33.2469
rfingers 7.12502
rthumb 7.68508 -63.0872
lclavicle 3.08862e-014 3.97569e-015
lhumerus -47.8143 -11.7579 85.0447
lradius 37.8674
lwrist 18.7078
lhand -9.65039 -17.743
lfingers 7.12502
lthumb 16.3203 11.5903
rfemur 0.982105 3.48008 28.9051
rtibia 12.0906
rfoot -17.2368 -18.9417
rtoes -3.75763
lfemur -39.2277 2.21524 -25.7139
ltibia 28.2355
lfoot -18.6953 13.9342
ltoes -2.16521
997
root -10.7803 16.9545 -18.6614 -172.344 -180.398 -182.518
lowerback 0.782025 1.46367 -2.52388
upperback -3.16436 1.86978 -0.552293
thorax -3.75772 0.999327 0.767495
lowerneck -3.71311 9.03931 7.24057
upperneck 13.004 13.1101 -10.459
head 5.69832 6.17008 -3.54758
rclavicle 3.13831e-014 1.51076e-014
rhumerus -42.854 10.0389 -82.0982
rradius 43.9699
rwrist -10.5202
rhand -18.6092 -32.8797
rfingers 7.12502
rthumb 7.68237 -62.7201
lclavicle 3.13831e-014 1.51076e-014
lhumerus -47.9209 -11.3828 85.0296
lradius 37.6425
lwrist 18.6023
lhand -9.47257 -17.6892
lfingers 7.12502
lthumb 16.4915 11.6299
rfemur 2.12775 2.94519 28.9751
rtibia 10.4651
rfoot -16.2689 -18.8776
rtoes -5.57855
lfemur -39.426 0.740627 -24.992
ltibia 27.1425
lfoot -19.3011 15.4475
ltoes -1.61766
998
root -10.7869 16.959 -18.5392 -172.292 -180.628 -182.95
lowerback 0.768284 1.43946 -2.24911
upperback -3.19067 1.85034 -0.391466
thorax -3.77233 0.984494 0.780249
lowerneck -3.98512 9.15531 7.07824
upperneck 13.3627 13.2864 -10.319
head 5.85305 6.23809 -3.44533
rclavicle 1.04113e-014 -7.95139e-016
rhumerus -42.652 9.9306 -81.877
rradius 44.1123
rwrist -10.1191
rhand -18.3908 -32.4651
rfingers 7.12502
rthumb 7.89312 -62.2978
lclavicle 1.04113e-014 -7.95139e-016
lhumerus -47.973 -11.0841 85.0243
lradius 37.5724
lwrist 18.5937
lhand -9.65034 -17.5974
lfingers 7.12502
lthumb 16.3203 11.7359
rfemur 3.33837 2.68252 29.4663
rtibia 8.81173
rfoot -15.6331 -18.687
rtoes -5.76307
lfemur -39.5796 -0.704095 -23.7684
ltibia 26.2201
lfoot -20.2032 16.6215
ltoes -0.561789
999
root -10.7947 16.9607 -18.4169 -172.356 -180.78 -183.298
lowerback 0.912138 1.46609 -2.02813
upperback -3.12727 1.89111 -0.334624
thorax -3.78336 0.998658 0.710674
lowerneck -3.87457 9.14969 7.10159
upperneck 12.9131 13.2646 -10.5093
head 5.70666 6.23209 -3.52065
rclavicle 2.62396e-014 1.43125e-014
rhumerus -42.2943 9.7485 -81.78
rradius 44.0714
rwrist -9.97564
rhand -18.2435 -32.2438
rfingers 7.12502
rthumb 8.03534 -62.0711
lclavicle 2.62396e-014 1.43125e-014
lhumerus -47.8162 -10.985 84.9533
lradius 37.3532
lwrist 18.7121
lhand -9.94192 -16.8811
lfingers 7.12502
lthumb 16.0396 12.475
rfemur 4.78529 2.46349 29.8881
rtibia 6.99356
rfoot -15.1904 -18.3787
rtoes -5.23358
lfemur -39.6752 -1.69867 -22.7978
ltibia 25.5016
lfoot -20.7707 17.2778
ltoes 2.53652
1000
root -10.7983 16.9488 -18.2864 -172.376 -180.84 -183.155
lowerback 0.804218 1.52702 -2.2025
upperback -3.05823 1.96717 -0.464117
thorax -3.65466 1.03815 0.676019
lowerneck -3.30872 9.03544 7.42064
upperneck 12.1262 13.1044 -11.0319
head 5.4072 6.17874 -3.78288
rclavicle 9.26834e-015 6.36111e-015
rhumerus -42.1387 9.77402 -81.9261
rradius 44.1078
rwrist -10.4717
rhand -18.7044 -32.4117
rfingers 7.12502
rthumb 7.59051 -62.2555
lclavicle 9.26834e-015 6.36111e-015
lhumerus -47.5224 -10.8154 84.7673
lradius 36.8924
lwrist 18.5324
lhand -10.0015 -16.5318
lfingers 7.12502
lthumb 15.9822 12.8288
rfemur 6.52868 2.2807 29.7201
rtibia 4.69296
rfoot -14.2091 -18.2119
rtoes -5.68049
lfemur -39.7828 -2.65828 -22.4302
ltibia 25.007
lfoot -21.3055 18.039
ltoes 5.03494
1001
root -10.7995 16.9328 -18.1591 -172.222 -180.946 -183.099
lowerback 0.585533 1.57011 -2.25185
upperback -3.14095 2.02547 -0.560387
thorax -3.61679 1.06758 0.607143
lowerneck -2.93686 8.99304 7.4632
upperneck 11.9431 13.0509 -11.0891
head 5.28852 6.1695 -3.8321
rclavicle -8.87077e-015 4.77083e-015
rhumerus -42.26 9.72015 -81.9957
rradius 44.3663
rwrist -10.5506
rhand -18.9381 -32.811
rfingers 7.12502
rthumb 7.36494 -62.6628
lclavicle -8.87077e-015 4.77083e-015
lhumerus -47.5215 -10.6374 84.6302
lradius 36.6542
lwrist 18.0866
lhand -9.94065 -17.0205
lfingers 7.12502
lthumb 16.0408 12.3354
rfemur 8.43392 2.09561 29.6297
rtibia 1.73421
rfoot -12.5856 -18.177
rtoes -7.09279
lfemur -40.0643 -3.59929 -21.9981
ltibia 24.6127
lfoot -21.4385 18.843
ltoes 4.40298
1002
root -10.8063 16.9355 -18.0349 -172.087 -181.162 -183.382
lowerback 0.553614 1.58084 -2.10636
upperback -3.24458 2.0454 -0.485311
thorax -3.70403 1.07597 0.601198
lowerneck -3.25282 9.10568 7.0583
upperneck 12.3957 13.1936 -10.5708
head 5.43438 6.22703 -3.57642
rclavicle -2.83268e-014 2.38542e-014
rhumerus -42.2766 9.60935 -81.8427
rradius 44.4325
rwrist -10.0099
rhand -18.783 -32.6111
rfingers 7.12502
rthumb 7.51458 -62.4576
lclavicle -2.83268e-014 2.38542e-014
lhumerus -47.6638 -10.5382 84.6933
lradius 36.6245
lwrist 18.0176
lhand -10.1402 -17.4974
lfingers 7.12502
lthumb 15.8486 11.874
rfemur 9.64281 1.84456 29.9325
rtibia 4.77083e-014
rfoot -11.8271 -17.9508
rtoes -7.67908
lfemur -40.2967 -3.98894 -21.4379
ltibia 24.276
lfoot -20.802 19.2874
ltoes 2.15194
1003
root -10.8105 16.9354 -17.8983 -172.09 -181.367 -183.539
lowerback 0.507747 1.59752 -2.09636
upperback -3.26644 2.06978 -0.458777
thorax -3.70205 1.08849 0.622891
lowerneck -3.37149 9.05376 7.03185
upperneck 12.5147 13.1318 -10.5701
head 5.48382 6.18894 -3.57041
rclavicle 5.73991e-015 2.38542e-014
rhumerus -42.2128 9.51813 -81.802
rradius 44.4204
rwrist -9.87619
rhand -18.6621 -32.2495
rfingers 7.12502
rthumb 7.63129 -62.0919
lclavicle 5.73991e-015 2.38542e-014
lhumerus -47.6856 -10.4911 84.7634
lradius 36.3226
lwrist 18.4274
lhand -10.4768 -17.6237
lfingers 7.12502
lthumb 15.5244 11.7731
rfemur 10.1232 1.56562 30.0908
rtibia -3.18055e-014
rfoot -11.8831 -17.6751
rtoes -8.69702
lfemur -40.2615 -3.83606 -21.3361
ltibia 24.104
lfoot -20.0606 19.0571
ltoes 1.74826
